/* XPM */
static char *ex1676798785[] = {
/* columns rows colors chars-per-pixel */
"43 43 154 2 ",
"   c #000000",
".  c #0E0402",
"X  c #120702",
"o  c #160902",
"O  c #1C0B04",
"+  c #240D04",
"@  c #2C1104",
"#  c #331405",
"$  c #3E1706",
"%  c #3E281F",
"&  c #411705",
"*  c #451906",
"=  c #4A1C06",
"-  c #461B08",
";  c #4C1D08",
":  c #531E07",
">  c #521F08",
",  c #562107",
"<  c #5B2107",
"1  c #542109",
"2  c #5C2309",
"3  c #632407",
"4  c #6A2707",
"5  c #6C2807",
"6  c #632609",
"7  c #682708",
"8  c #66280A",
"9  c #6A290A",
"0  c #722A07",
"q  c #732C09",
"w  c #7B2F09",
"e  c #7D300A",
"r  c #67341C",
"t  c #6C361D",
"y  c #70371E",
"u  c #7F3C1C",
"i  c #4B2E21",
"p  c #523121",
"a  c #5B3421",
"s  c #733D24",
"d  c #7C3F22",
"f  c #784228",
"g  c #83320A",
"h  c #8C360A",
"j  c #8F380C",
"k  c #93390B",
"l  c #9E3C0B",
"z  c #A13E0C",
"x  c #D52700",
"c  c #91421D",
"v  c #A6400C",
"b  c #AC420C",
"n  c #B3450D",
"m  c #BC490D",
"M  c #B14812",
"N  c #BA4D16",
"B  c #AF501F",
"V  c #BF5018",
"C  c #834222",
"Z  c #8A4422",
"A  c #884827",
"S  c #8D4A2E",
"D  c #9C4B23",
"F  c #934A29",
"G  c #A34D24",
"H  c #B6482E",
"J  c #A55024",
"K  c #AF5122",
"L  c #B35423",
"P  c #B85724",
"I  c #B65827",
"U  c #BB5926",
"Y  c #BA5A28",
"T  c #BC4D33",
"R  c #A85834",
"E  c #A15A3D",
"W  c #C34B0C",
"Q  c #C44D10",
"!  c #C7561E",
"~  c #C75821",
"^  c #CB5A22",
"/  c #C35A28",
"(  c #CD6432",
")  c #D16835",
"_  c #9A5A42",
"`  c #BB5740",
"'  c #A96246",
"]  c #BB6845",
"[  c #B0694C",
"{  c #B26D52",
"}  c #B87258",
"|  c #BD775B",
" . c #BA5F62",
".. c #B77761",
"X. c #B97B66",
"o. c #B16770",
"O. c #B66972",
"+. c #CF6E42",
"@. c #C9744F",
"#. c #D47346",
"$. c #D57A53",
"%. c #DB7D54",
"&. c #D69353",
"*. c #C78166",
"=. c #CF8467",
"-. c #CC826D",
";. c #D4896C",
":. c #D08C74",
">. c #D1917D",
",. c #E08764",
"<. c #E48D6B",
"1. c #E79373",
"2. c #9D668F",
"3. c #866C95",
"4. c #8F6F95",
"5. c #896F99",
"6. c #9E6790",
"7. c #937296",
"8. c #9E7596",
"9. c #AA7A82",
"0. c #AD6C93",
"q. c #A97996",
"w. c #A77498",
"e. c #A77A99",
"r. c #B17D9A",
"t. c #957FAB",
"y. c #B5838D",
"u. c #BC8F9D",
"i. c #9683AE",
"p. c #978CBF",
"a. c #9F8DBE",
"s. c #AD80A6",
"d. c #B585A5",
"f. c #B292A7",
"g. c #A888B3",
"h. c #AD91BF",
"j. c #BC9DB0",
"k. c #B794BD",
"l. c #C095A4",
"z. c #C19DB0",
"x. c #9088D5",
"c. c #948DDB",
"v. c #9D90D3",
"b. c #9590DF",
"n. c #AB95C5",
"m. c #AB97C8",
"M. c #B395C1",
"N. c #B997C1",
"B. c #BD9BC5",
"V. c #B29ACA",
"C. c #BC9ECB",
"Z. c #9E93E1",
"A. c #9394FF",
"S. c #A397E5",
/* pixels */
"A.A.A.A.A.A.A.A.A.A.A.A.A.A.A.A.A.A.&.v.A.A.A.A.A.A.A.A.A.A.A.A.A.A.A.A.A.A.A.A.A.A.A.",
"A.A.A.A.A.A.A.A.A.A.A.A.A.A.A.A.A.A.y.A.A.A.A.A.A.A.A.A.A.A.A.A.A.A.A.A.A.A.A.A.A.A.A.",
"A.A.A.A.A.A.A.A.A.A.A.A.A.A.A.A.A.A.0.A.2.H 6.A.A.A.A.A.A.A.A.A.A.A.A.A.A.A.A.A.A.A.A.",
"A.A.A.A.A.A.A.A.A.A.A.A.A.A.A.A.A.A.o.c.T x  .A.A.A.A.A.A.A.A.A.A.A.A.A.A.A.A.A.A.A.A.",
"A.A.A.A.A.A.A.A.A.A.A.A.A.A.A.A.A.A.0.A.` w.O.A.A.A.A.A.A.A.A.A.A.A.A.A.A.A.A.A.A.A.A.",
"A.A.A.A.A.A.A.A.A.A.A.A.A.A.A.A.A.A.0.A.A.A.A.A.A.A.A.A.A.A.A.A.A.A.A.A.A.A.A.A.A.A.A.",
"A.A.A.A.A.A.A.A.A.A.Z.B.Z.A.A.Z.B.B.-.j.A.A.A.C.B.B.C.A.A.A.S.B.h.A.A.A.A.A.A.A.A.A.A.",
"A.A.A.A.A.A.A.A.A.A.q.Q V.A.A.m.^ W W =.A.A.A.@.W W ( a.A.A.k.W I A.A.A.A.A.A.A.A.A.A.",
"A.A.A.A.A.A.A.A.A.A.q.W V.A.A.g.! W W =.A.A.A.] W W ( c.A.A.k.W Y A.A.A.A.A.A.A.A.A.A.",
"A.A.A.A.A.A.A.A.A.A.4.h z.V.V.f.c h g X.m.m.n.' h h R V.V.n.u.g A A.A.A.A.A.A.A.A.A.A.",
"A.A.A.A.A.A.A.A.A.A.8.v ^ K D ^ n 2 v V ^ C ^ N k 5 M ! Z ~ ! v i A.A.A.A.A.A.A.A.A.A.",
"A.A.A.A.A.A.A.A.A.A.3.5 4 < ; 8 5 $ 5 8 5 $ 5 5 3 = 8 5 & 6 5 5 % A.A.A.A.A.A.A.A.A.A.",
"A.A.A.A.A.A.A.A.A.A.q.m 5 W W g v W W 8 N W W 8 W m j l W m 8 W L A.A.A.A.A.A.A.A.A.A.",
"A.A.A.A.A.A.A.A.A.A.5.8 - 6 = # $ = 9 - 9 2 9 - 8 = # $ = 8 - 8 a A.A.A.A.A.A.A.A.A.A.",
"A.A.A.A.A.A.A.A.A.A.q.W W v       . W W W 9 W W b         n W W p A.A.A.A.A.A.A.A.A.A.",
"A.A.A.A.A.A.A.A.A.A.5.6 1 6 X       9 ; 9 < 9 ; 8 o       6 ; q a A.A.A.A.A.A.A.A.A.A.",
"A.A.A.A.A.A.A.A.A.A.r.m 5 W $       W 9 W W W 4 W -       n 5 W L A.A.A.A.A.A.A.A.A.A.",
"A.A.A.A.A.A.A.A.A.A.5.5 6 2         9 8 4 $ 8 6 6         6 6 9 i A.A.A.A.A.A.A.A.A.A.",
"A.A.A.A.A.A.A.A.A.A.e.b n k         b n n 6 n n z         v n n i A.A.A.A.A.A.A.A.A.A.",
"A.A.A.A.A.A.A.A.A.A.4.w = w +       w - w w w & w @       q - w f A.A.A.A.A.A.A.A.A.A.",
"A.A.A.A.A.A.A.A.A.A.7.k : k @       j ; k k j > k #       h > k Z A.A.A.A.A.A.A.A.A.A.",
"A.A.A.y.>.A.A.A.M.;.*.{ ' w q R | { { | l 1 l X.{ { ..G 2 k [ { [ =.M.A.A.b.:.=.x.A.A.",
"A.A.A.P #.A.A.A.d.W W Q [ 3 > E ^ W W $.q * q %.W W ) F = 0 } W W W k.A.A.p.( W i.A.A.",
"A.A.A.U #.A.A.A.s.W W Q $.m m +.^ W W %.m n m %.W W ) / n m $.W W W g.A.A.c.( W t.A.A.",
"A.A.A.f _ l.M.k.9.9 6 9 1.%.$.<.u 6 8 | %.$.%.{ 5 6 S ,.%.$.<.9 7 8 y.N.M.l.S 3 x.A.A.",
"A.A.A.U W W 5 W W W 9 W Q z h W W 9 W W W 9 W W n g W W q m W W 8 W W m q W W g A.A.A.",
"A.A.A.f 1 8 1 9 > 9 ; 8 : 6 < < 6 > 9 1 9 > 9 > 6 1 2 2 1 9 > 9 > 8 1 8 1 6 2 , A.A.A.",
"A.A.A.U e n W W 9 W W W q W W g v W W 9 W W Q 9 W W k l W W 9 W W W 8 W W z h W A.A.A.",
"A.A.A.s 2 8 - 8 2 4 - 8 6 2 > 6 6 - 9 2 # O O 1 6 ; 6 6 - 8 2 8 - 8 2 8 = 8 6 ; A.A.A.",
"A.A.A.L m m 6 W m m 8 m m l g m m 4 M @       . e w m m q n m m 8 m m m 5 m m e A.A.A.",
"A.A.A.d = 4 q q * q 5 q & q q ; 3 q #           . q > < 0 q & q q 0 $ 0 0 2 1 q A.A.A.",
"A.A.A.D 3 k z l 1 z l l 2 l l 9 h z O             e w g l z 1 l l z 1 l z g q l A.A.A.",
"A.A.A.Z h h ; h h h ; h h q 6 h h ;               < h h , g h h ; h h h : j h < A.A.A.",
"A.A.A.C g g = g g g = g g q 2 g g *               : g g ; e g g * g g e ; g g < A.A.A.",
"A.A.A.J 4 l b b 2 b b v 6 b b q k v               5 g g b b 2 b b b 2 b v h e v A.A.A.",
"A.A.A.y = 6 8 5 & 5 4 8 & 5 5 ; 2 8               * 1 < 5 8 & 8 8 5 $ 5 7 < : 4 A.A.A.",
"A.A.A.L W m 8 W W W 8 W W z h m W 6               e W m q n W W 8 W W M q W W e A.A.A.",
"A.A.A.y 2 8 ; 5 < 9 ; 8 < 2 1 6 8 -               - 6 6 ; 9 2 9 ; 5 2 9 ; 6 2 1 A.A.A.",
"A.A.A.L w n W W 8 W W W q W W g v m               w k l W W 9 W W W 9 W W l h W A.A.A.",
"A.A.A.r 2 8 = 8 2 9 - 8 < 6 1 2 6 =               - 2 6 1 6 2 8 - 9 < 8 ; 8 6 1 A.A.A.",
"A.A.A.B W W 8 W W Q 8 W W v h m W 6               w W W q n W W 8 W W m 5 W W g A.A.A.",
"A.A.A.t * 6 8 5 $ 8 8 8 & 5 5 - 2 8               * > : 8 5 $ 5 9 5 $ 5 4 < ; 4 A.A.A.",
"A.A.A.G 5 z b b 2 b b b 6 b n q k b               5 g h n b 2 b b b 2 b b h e b A.A.A."
};
