/* XPM */
static char *ml1676798786[] = {
/* columns rows colors chars-per-pixel */
"43 43 124 2 ",
"   c black",
".  c #600101",
"X  c #5F210F",
"o  c #5F2414",
"O  c #5E2718",
"+  c #5F2819",
"@  c #54391A",
"#  c #60210F",
"$  c #612311",
"%  c #682713",
"&  c #6E2D16",
"*  c #61291A",
"=  c #702E16",
"-  c #7A3A1B",
";  c #5C411F",
":  c #333A6B",
">  c #213F74",
",  c #2A3C70",
"<  c #4F325D",
"1  c #52325C",
"2  c #6F294D",
"3  c #732A4A",
"4  c #73394B",
"5  c #1D416E",
"6  c #0F447E",
"7  c #154176",
"8  c #1A4375",
"9  c #13457B",
"0  c #18437A",
"q  c #1B4B7A",
"w  c #315E6E",
"e  c #2B5872",
"r  c #395674",
"t  c #7C4E48",
"y  c #57785D",
"u  c #4F7661",
"i  c #9C150B",
"p  c #971E15",
"a  c #982916",
"s  c #803F1E",
"d  c #B32A15",
"f  c #EC0C0E",
"g  c #FE0305",
"h  c #F30609",
"j  c #FB0708",
"k  c #F40B0D",
"l  c #FB0A0A",
"z  c #FB130C",
"x  c #E40C12",
"c  c #EE0F10",
"v  c #EC1414",
"b  c #E11D1D",
"n  c #EA1B1C",
"m  c #F21414",
"M  c #F92414",
"N  c #C41321",
"B  c #C31A25",
"V  c #E91F20",
"C  c #84431F",
"Z  c #975327",
"A  c #97582B",
"S  c #A25D2B",
"D  c #8E632E",
"F  c #A2602D",
"G  c #A06430",
"H  c #B26F34",
"J  c #B77235",
"K  c #B87335",
"L  c #B17A3A",
"P  c #BE7A39",
"I  c #CE4C25",
"U  c #E14C2A",
"Y  c #F34C25",
"T  c #F25328",
"R  c #F05F2D",
"E  c #EF642F",
"W  c #F0622E",
"Q  c #842441",
"!  c #D33853",
"~  c #CB5F72",
"^  c #5F805B",
"/  c #688955",
"(  c #729251",
")  c #C7833D",
"_  c #C8833D",
"`  c #B6C832",
"'  c #F5FB16",
"]  c #9F825B",
"[  c #A5845A",
"{  c #AE8858",
"}  c #8AA446",
"|  c #98AF40",
" . c #CB8841",
".. c #D58E42",
"X. c #DA9243",
"o. c #D79749",
"O. c #DA9A4C",
"+. c #E49E49",
"@. c #E89F49",
"#. c #E7A049",
"$. c #E8A14A",
"%. c #365898",
"&. c #7A5B87",
"*. c #795C8A",
"=. c #7A6493",
"-. c #7E6999",
";. c #536CBD",
":. c #B7568B",
">. c #B65A8E",
",. c #BB588E",
"<. c #B55E92",
"1. c #C84B82",
"2. c #C65085",
"3. c #C35D92",
"4. c #C17A96",
"5. c #C07B98",
"6. c #8579C6",
"7. c #867CC9",
"8. c #B496A5",
"9. c #BB99A5",
"0. c #B296A8",
"q. c #C69C83",
"w. c #A193D2",
"e. c #9394FF",
/* pixels */
"e.e.e.e.e.e.e.e.e.e.e.e.e.e.e.e.e.e.e.e.e.e.e.e.e.e.e.e.e.e.e.e.e.e.e.e.e.e.e.e.e.e.e.",
"e.e.e.e.e.e.e.e.e.e.e.e.e.e.e.e.e.e.e.e.e.e.e.e.e.e.e.e.e.e.e.e.e.e.e.e.e.e.e.e.e.e.e.",
"e.e.e.e.e.e.e.e.e.e.e.e.e.e.e.e.e.e.e.e.e.e.e.e.e.e.e.e.e.e.e.e.e.e.e.e.e.e.e.e.e.e.e.",
"e.e.e.e.e.e.e.e.e.e.e.e.e.e.e.e.<.k k k k k k k k k k k k k c e.e.e.e.e.e.e.e.e.e.e.e.",
"e.e.e.e.e.e.e.e.e.e.e.e.e.e.e.e.>.g g g g g g g g g g g g g l e.e.e.e.e.e.e.e.e.e.e.e.",
"e.e.e.e.e.e.e.e.! v n v v v v v c g g g g g g g g g g g g g j c f ! e.e.e.e.e.e.e.e.e.",
"e.e.e.e.e.e.e.e.v g g g g g g g g g g g g g g g g g g g g g g g g f e.e.e.e.e.e.e.e.e.",
"e.e.e.e.e.e.e.e.<.3.3.3.3.~ E E I . . a W W W E W d i i i i i i i p e.e.e.e.e.e.e.e.e.",
"e.e.e.e.e.e.e.e.e.e.e.e.e.e.+.$.L     ; $.$.$.$.#.C # # # # $ # o O e.e.e.e.e.e.e.e.e.",
"e.e.e.e.e.e.e.e.8.9.9.9.9.q.$.$.L     ; $.$.$.$.#.J S S % # $ F S A *.*.6.e.e.e.e.e.e.",
"e.e.e.e.e.e.e.e.O.$.$.$.$.$.$.$.L     ; $.$.$.$.#.#.#.$.= # & $.@.) $ $ &.e.e.e.e.e.e.",
"e.e.e.e.e.w.0.8.O.$.$.$.$.+.K J G @ @ D $.$.$.$.#.) K K & # % $.$._ # # &.e.e.e.e.e.e.",
"e.e.e.e.e.9.$.$.$.$.$.$.$.X.$ # s $.$.$.$.$.$.$.$.C # # # $ % $.@._ $ $ &.e.e.e.e.e.e.",
"e.e.e.e.e.8.O.O. ._ _ _ ) P # # - _ _ ..$.$.$.$.$.A s s C - C _ ) H $ $ &.e.e.e.e.e.e.",
"e.e.e.e.e.e.e.e.* # # # # % X X # # $ Z $.$.$.$.$.$.$.$.@.+.+.X $ $ # # &.e.e.e.e.e.e.",
"e.e.e.e.e.e.e.e.+ * % & & & & & = = = S $.$.$.$.$.$.$.$.$.@.+.o $ o $ * *.e.e.e.e.e.e.",
"e.e.e.e.e.e.e.e.e.e.e.#.$.#.$.$.@.$.$.$.$.$.$.$.$.$.#.#.#.#.#.e.e.e.e.e.e.e.e.e.e.e.e.",
"e.e.e.e.e.e.e.e.e.e.e.+.+.@.@.$.@.$.$.$.$.$.$.$.$.$.O.o.#.#.#.e.e.e.e.e.e.e.e.e.e.e.e.",
"e.e.e.e.e.e.e.e.e.e.e.e.e.e.e.e.>.g g j j g j g g 1 9 7 x j j j g v e.e.e.e.e.e.e.e.e.",
"e.e.e.e.e.e.e.e.e.e.e.e.e.e.e.e.:.g g g g g g g g 1 %.6 x g g g g v e.e.e.e.e.e.e.e.e.",
"e.e.e.e.e.e.e.e.b m m m c m m m B : : Q g g g g g 1 6 6 x g g g g j m m ,.e.e.e.e.e.e.",
"e.e.e.e.e.e.e.e.f j g g g g g g N 6 6 2 g g g g g < 6 6 x g g g g g g g ~ e.e.e.e.e.e.",
"e.e.e.e.e.,.n n k g g g g g g g N 6 6 , 1 < 1 1 1 > 6 6 x g g g g g g g k V n ,.e.e.e.",
"e.e.e.e.e.1.g g g g g g g g g g B 6 6 6 9 6 6 6 6 6 6 6 x g g g g g g g g g g 2.e.e.e.",
"e.e.e.e.e.4.W W E W W l g h 2 2 t | | ^ 6 6 6 6 6 ( | | 4 2 3 g g z E R R W R 5.e.e.e.",
"e.e.e.e.e.9.$.$.$.$.#.z g f 6 6 u ' ' | 6 6 6 6 6 ` ' ' e 6 8 g g M @.$.$.$.$.8.e.e.e.",
"e.e.e.e.e.9.$.$.$.$.$.T Y U 9 6 w } } y 6 6 6 6 6 / } } 7 %.8 Y Y E $.$.$.$.$.9.e.e.e.",
"e.e.e.e.e.q.$.$.$.$.$.$.#.o.6 6 6 6 6 6 6 6 6 6 6 6 6 6 6 9 9 $.$.$.$.$.$.$.$.9.e.e.e.",
"e.e.e.e.e.9.$.$.#.$.$.[ ] ] 6 6 6 6 6 6 6 6 6 6 6 6 6 6 6 6 7 ] ] { $.$.$.$.$.8.e.e.e.",
"e.e.e.e.e.9.$.$.#.#.$.q 6 6 6 6 6 6 6 6 6 6 6 6 6 6 6 6 6 6 6 6 6 r $.$.$.$.$.8.e.e.e.",
"e.e.e.e.e.8.O.O.o.o.o.q 6 6 6 6 6 6 6 6 9 9 7 9 6 7 6 6 6 6 6 6 6 r o.O.o.O.o.8.e.e.e.",
"e.e.e.e.e.e.e.e.e.e.e.6 6 6 6 6 6 6 6 ;.e.e.e.e.e.7 6 6 6 6 6 6 9 0 e.e.e.e.e.e.e.e.e.",
"e.e.e.e.e.e.e.e.e.e.e.8 7 7 7 7 7 9 9 ;.e.e.e.e.e.%.7 7 7 7 7 7 7 5 e.e.e.e.e.e.e.e.e.",
"e.e.e.e.e.e.e.e.* # # X X # # # * e.e.e.e.e.e.e.e.e.e.e.o X X # # X # # &.e.e.e.e.e.e.",
"e.e.e.e.e.e.e.e.* # # % $ # # # * e.e.e.e.e.e.e.e.e.e.e.% X $ # # # # # &.e.e.e.e.e.e.",
"e.e.e.e.e.*.$ $ # # # # # # # # * e.e.e.e.e.e.e.e.e.e.e.* $ # # # $ $ # o o % *.e.e.e.",
"e.e.e.e.e.&.# # # # # # $ # $ $ * e.e.e.e.e.e.e.e.e.e.e.* # $ $ $ # # # # # o *.e.e.e.",
"e.e.e.e.e.e.e.e.e.e.e.e.6.7.e.=.6.e.e.e.e.e.e.e.e.e.e.e.7.=.-.-.-.-.=.=.=.=.*.e.e.e.e.",
"e.e.e.e.e.e.e.e.e.e.e.e.e.e.e.e.e.e.e.e.e.e.e.e.e.e.e.e.e.e.e.e.e.e.e.e.e.e.e.e.e.e.e.",
"e.e.e.e.e.e.e.e.e.e.e.e.e.e.e.e.e.e.e.e.e.e.e.e.e.e.e.e.e.e.e.e.e.e.e.e.e.e.e.e.e.e.e.",
"e.e.e.e.e.e.e.e.e.e.e.e.e.e.e.e.e.e.e.e.e.e.e.e.e.e.e.e.e.e.e.e.e.e.e.e.e.e.e.e.e.e.e.",
"e.e.e.e.e.e.e.e.e.e.e.e.e.e.e.e.e.e.e.e.e.e.e.e.e.e.e.e.e.e.e.e.e.e.e.e.e.e.e.e.e.e.e.",
"e.e.e.e.e.e.e.e.e.e.e.e.e.e.e.e.e.e.e.e.e.e.e.e.e.e.e.e.e.e.e.e.e.e.e.e.e.e.e.e.e.e.e."
};
