/* XPM */
static char *mr1676798786[] = {
/* columns rows colors chars-per-pixel */
"43 43 125 2 ",
"   c black",
".  c #600101",
"X  c #5F210F",
"o  c #5F2414",
"O  c #5E2718",
"+  c #5F2819",
"@  c #54391A",
"#  c #60210F",
"$  c #612311",
"%  c #682713",
"&  c #6E2D16",
"*  c #61291A",
"=  c #702E16",
"-  c #7A3A1B",
";  c #5C411F",
":  c #333A6B",
">  c #2A3C70",
",  c #4F325D",
"<  c #52325C",
"1  c #6F294D",
"2  c #732A4A",
"3  c #73394B",
"4  c #1D416E",
"5  c #0F447E",
"6  c #154176",
"7  c #1A4375",
"8  c #13457B",
"9  c #18437A",
"0  c #1B4B7A",
"q  c #315E6E",
"w  c #2B5872",
"e  c #395674",
"r  c #7C4E48",
"t  c #57785D",
"y  c #4F7661",
"u  c #9C150B",
"i  c #971E15",
"p  c #982916",
"a  c #803F1E",
"s  c #B32A15",
"d  c #EC0C0E",
"f  c #FE0305",
"g  c #F30609",
"h  c #FB0708",
"j  c #F40B0D",
"k  c #FB0A0A",
"l  c #FB130C",
"z  c #E40C12",
"x  c #EE0F10",
"c  c #EC1414",
"v  c #EA1B1C",
"b  c #F21414",
"n  c #F92414",
"m  c #C41321",
"M  c #C31A25",
"N  c #E91F20",
"B  c #84431F",
"V  c #975327",
"C  c #97582B",
"Z  c #A25D2B",
"A  c #8E632E",
"S  c #A2602D",
"D  c #A06430",
"F  c #B26F34",
"G  c #B77235",
"H  c #B87335",
"J  c #B17A3A",
"K  c #BE7A39",
"L  c #CE4C25",
"P  c #E14C2A",
"I  c #F34C25",
"U  c #F25328",
"Y  c #F05F2D",
"T  c #EF642F",
"R  c #F0622E",
"E  c #842441",
"W  c #D33853",
"Q  c #927C5E",
"!  c #CB5F72",
"~  c #5F805B",
"^  c #688955",
"/  c #729251",
"(  c #C7833D",
")  c #C8833D",
"_  c #B6C832",
"`  c #F5FB16",
"'  c #9F825B",
"]  c #A5845A",
"[  c #AE8858",
"{  c #8AA446",
"}  c #95AB43",
"|  c #98AF40",
" . c #CB8841",
".. c #D58E42",
"X. c #DA9243",
"o. c #D6994E",
"O. c #DA9A4C",
"+. c #E49E49",
"@. c #E89F49",
"#. c #E7A049",
"$. c #E8A14A",
"%. c #365898",
"&. c #7A5B87",
"*. c #795C8A",
"=. c #7A6493",
"-. c #7E6999",
";. c #536CBD",
":. c #B7568B",
">. c #B65A8E",
",. c #BB588E",
"<. c #B55E92",
"1. c #C84B82",
"2. c #C65085",
"3. c #C15288",
"4. c #C35D92",
"5. c #C17A96",
"6. c #C07B98",
"7. c #8579C6",
"8. c #867CC9",
"9. c #B496A5",
"0. c #BB99A5",
"q. c #B296A8",
"w. c #C69C83",
"e. c #A193D2",
"r. c #9394FF",
/* pixels */
"r.r.r.r.r.r.r.r.r.r.r.r.r.r.r.r.r.r.r.r.r.r.r.r.r.r.r.r.r.r.r.r.r.r.r.r.r.r.r.r.r.r.r.",
"r.r.r.r.r.r.r.r.r.r.r.r.r.r.r.r.r.r.r.r.r.r.r.r.r.r.r.r.r.r.r.r.r.r.r.r.r.r.r.r.r.r.r.",
"r.r.r.r.r.r.r.r.r.r.r.r.r.r.r.r.r.r.r.r.r.r.r.r.r.r.r.r.r.r.r.r.r.r.r.r.r.r.r.r.r.r.r.",
"r.r.r.r.r.r.r.r.r.r.r.r.x j j j j j j j j j j j j j <.r.r.r.r.r.r.r.r.r.r.r.r.r.r.r.r.",
"r.r.r.r.r.r.r.r.r.r.r.r.h f f f f f f f f f f f f f :.r.r.r.r.r.r.r.r.r.r.r.r.r.r.r.r.",
"r.r.r.r.r.r.r.r.r.W d x f f f f f f f f f f f f f f x c c c c c c c W r.r.r.r.r.r.r.r.",
"r.r.r.r.r.r.r.r.r.x f f f f f f f f f f f f f f f f f f f f f f f f v r.r.r.r.r.r.r.r.",
"r.r.r.r.r.r.r.r.r.i u u u u u u u s T R R R R p . . L T T ! 4.4.4.4.<.r.r.r.r.r.r.r.r.",
"r.r.r.r.r.r.r.r.r.o $ $ # # $ # $ B $.$.$.$.$.;     J #.#.r.r.r.r.r.r.r.r.r.r.r.r.r.r.",
"r.r.r.r.r.r.7.*.&.C S Z $ $ % Z S G $.$.$.$.$.;     J #.#.w.0.0.0.0.q.r.r.r.r.r.r.r.r.",
"r.r.r.r.r.r.&.# o ( #.#.% $ = #.#.#.$.$.$.$.$.;     J #.#.#.#.$.$.$.O.r.r.r.r.r.r.r.r.",
"r.r.r.r.r.r.&.# #  .$.$.% X & G H ( $.$.$.$.$.A @ @ D H H +.$.$.$.#.+.q.q.e.r.r.r.r.r.",
"r.r.r.r.r.r.&.# $ ) #.#.% $ $ $ $ B $.$.$.$.$.$.#.#.a # % X.#.#.#.$.$.$.#.0.r.r.r.r.r.",
"r.r.r.r.r.r.&.# $ F ) ) B a a a a C $.$.$.$.$...) ) - $ X K ) ) ) )  .O.O.9.r.r.r.r.r.",
"r.r.r.r.r.r.&.# # # # # +.@.@.#.$.$.$.$.#.#.@.V $ $ # # $ $ $ # $ $ O r.r.r.r.r.r.r.r.",
"r.r.r.r.r.r.*.* * o $ $ +.+.@.#.$.$.$.$.#.#.@.Z & = & & = & & = $ O O r.r.r.r.r.r.r.r.",
"r.r.r.r.r.r.r.r.r.r.r.r.$.$.#.#.$.$.$.$.#.#.#.$.$.$.#.#.#.#.#.#.r.r.r.r.r.r.r.r.r.r.r.",
"r.r.r.r.r.r.r.r.r.r.r.r.+.$.$.+.$.$.$.$.#.#.#.#.$.$.#.#.#.#.#.+.r.r.r.r.r.r.r.r.r.r.r.",
"r.r.r.r.r.r.r.r.r.c h h h h z 8 8 < f f h f f f h h >.r.r.r.r.r.r.r.r.r.r.r.r.r.r.r.r.",
"r.r.r.r.r.r.r.r.r.c f f f f z 5 8 < f f f f f f f f :.r.r.r.r.r.r.r.r.r.r.r.r.r.r.r.r.",
"r.r.r.r.r.r.3.b b h f f f f z 5 %., f f f f f E : : M b b b b c b b N r.r.r.r.r.r.r.r.",
"r.r.r.r.r.r.1.f f f f f f f z 5 5 , f g f f f 1 5 8 m f f f f f f f d r.r.r.r.r.r.r.r.",
"r.r.r.,.v N j f f f f f f f z 5 5 4 , , < < < > 5 5 m f f f f f f f k v v 4.r.r.r.r.r.",
"r.r.r.2.f f f f f f f f f f z 8 5 5 5 5 5 5 5 5 5 5 m f f f f f f f f f f 1.r.r.r.r.r.",
"r.r.r.6.T Y R Y R l f f 2 2 3 | | / 5 5 5 5 5 ~ | | r 1 1 g f k R R R Y R 5.r.r.r.r.r.",
"r.r.r.9.+.#.#.#.#.n f f 9 5 w ` ` _ 5 5 5 5 5 } ` ` y 5 5 d f l $.$.$.$.$.0.r.r.r.r.r.",
"r.r.r.0.$.$.#.$.$.T I I 9 5 0 { { ^ 5 5 5 5 5 t { { q 5 8 P I U $.$.$.$.$.0.r.r.r.r.r.",
"r.r.r.0.$.$.$.$.$.$.$.$.0 5 5 5 5 5 5 5 5 5 5 5 5 5 5 5 5 o.@.@.$.$.$.$.$.w.r.r.r.r.r.",
"r.r.r.0.$.$.$.$.$.[ ' ' 6 5 5 5 5 5 5 5 5 5 5 5 5 5 5 5 5 Q ' ] #.#.#.$.#.0.r.r.r.r.r.",
"r.r.r.9.$.$.$.$.$.e 5 5 5 5 5 5 5 5 5 5 5 8 5 5 5 5 5 5 5 5 8 0 #.+.$.$.#.0.r.r.r.r.r.",
"r.r.r.9.O.O.O.O. .w 5 5 5 5 5 5 8 8 8 8 8 8 8 8 5 5 5 5 5 5 5 0 O.O.O.O.O.9.r.r.r.r.r.",
"r.r.r.r.r.r.r.r.r.6 5 5 5 5 5 5 %.7 r.r.r.r.r.;.5 5 5 5 5 5 5 9 r.r.r.r.r.r.r.r.r.r.r.",
"r.r.r.r.r.r.r.r.r.4 7 6 6 6 6 8 6 %.r.r.r.r.r.;.8 8 6 6 7 6 6 7 r.r.r.r.r.r.r.r.r.r.r.",
"r.r.r.r.r.r.&.X # o # # X X o r.r.r.r.r.r.r.r.r.r.r.+ X # # X X # # o r.r.r.r.r.r.r.r.",
"r.r.r.r.r.r.&.# # # # # # $ * r.r.r.r.r.r.r.r.r.r.r.* # # $ # $ $ # * r.r.r.r.r.r.r.r.",
"r.r.r.*.$ $ $ # # # # $ $ # $ r.r.r.r.r.r.r.r.r.r.r.* $ $ # $ $ # X $ o $ &.r.r.r.r.r.",
"r.r.r.*.# # # $ # # # # # # * r.r.r.r.r.r.r.r.r.r.r.* $ $ o $ X # # $ $ # &.r.r.r.r.r.",
"r.r.r.r.*.=.=.=.-.=.-.-.-.-.8.r.r.r.r.r.r.r.r.r.r.r.8.*.r.8.7.r.r.r.r.r.r.r.r.r.r.r.r.",
"r.r.r.r.r.r.r.r.r.r.r.r.r.r.r.r.r.r.r.r.r.r.r.r.r.r.r.r.r.r.r.r.r.r.r.r.r.r.r.r.r.r.r.",
"r.r.r.r.r.r.r.r.r.r.r.r.r.r.r.r.r.r.r.r.r.r.r.r.r.r.r.r.r.r.r.r.r.r.r.r.r.r.r.r.r.r.r.",
"r.r.r.r.r.r.r.r.r.r.r.r.r.r.r.r.r.r.r.r.r.r.r.r.r.r.r.r.r.r.r.r.r.r.r.r.r.r.r.r.r.r.r.",
"r.r.r.r.r.r.r.r.r.r.r.r.r.r.r.r.r.r.r.r.r.r.r.r.r.r.r.r.r.r.r.r.r.r.r.r.r.r.r.r.r.r.r.",
"r.r.r.r.r.r.r.r.r.r.r.r.r.r.r.r.r.r.r.r.r.r.r.r.r.r.r.r.r.r.r.r.r.r.r.r.r.r.r.r.r.r.r."
};
