/* XPM */
static char *w1676798786[] = {
/* columns rows colors chars-per-pixel */
"43 43 143 2 ",
"   c #250E02",
".  c #572105",
"X  c #471B04",
"o  c #180901",
"O  c #542005",
"+  c #0B0400",
"@  c #3A1603",
"#  c #321303",
"$  c #C84C0C",
"%  c #A53E0A",
"&  c #381503",
"*  c #C34A0B",
"=  c #1A0A01",
"-  c #190901",
";  c #C54B0B",
":  c #371503",
">  c #A53F0A",
",  c #873308",
"<  c #752C07",
"1  c #391603",
"2  c #732C07",
"3  c #150801",
"4  c #311303",
"5  c #290F02",
"6  c #0E0500",
"7  c #301203",
"8  c #060200",
"9  c #2F1202",
"0  c #0C0400",
"q  c #210C02",
"w  c #1D0B01",
"e  c #AB410A",
"r  c #2A1002",
"t  c #923709",
"y  c #451A04",
"u  c #792E07",
"i  c #5E2305",
"p  c #5F2405",
"a  c #431904",
"s  c #933709",
"d  c #2B1002",
"f  c #120701",
"g  c #4F1E04",
"h  c #8D3508",
"j  c #6F2A06",
"k  c #8C3508",
"l  c #521F05",
"z  c #331303",
"x  c #742C07",
"c  c #5B2205",
"v  c #2A0F02",
"b  c #110601",
"n  c #100601",
"m  c #070200",
"M  c #0F0601",
"N  c #2F1203",
"B  c #200C02",
"V  c #230D02",
"C  c #4E1D04",
"Z  c #501E05",
"A  c #421904",
"S  c #160801",
"D  c #511F04",
"F  c #0A0400",
"G  c #501E04",
"H  c #170801",
"J  c #220D02",
"K  c #2D1102",
"L  c #8E3608",
"P  c #240D02",
"I  c #8D3608",
"U  c #391503",
"Y  c #652606",
"T  c #7A2E07",
"R  c #0F0501",
"E  c #8F3608",
"W  c #A9400A",
"Q  c #A73F0A",
"!  c #893408",
"~  c #6B2806",
"^  c #6C2906",
"/  c #030100",
"(  c #883308",
")  c #562105",
"_  c #6E2A06",
"`  c #6C2806",
"'  c #6E2906",
"]  c #6A2806",
"[  c #1E0B01",
"{  c #5C2205",
"}  c #301202",
"|  c #491B04",
" . c #6D2906",
".. c #401803",
"X. c #1C0A01",
"o. c #3D1703",
"O. c #3F1703",
"+. c #5F2406",
"@. c #702A06",
"#. c #130701",
"$. c #A13D09",
"%. c #BE480B",
"&. c #853207",
"*. c #712B06",
"=. c #592105",
"-. c #270F02",
";. c #120601",
":. c #8B3408",
">. c #260E02",
",. c #3E1703",
"<. c #511F05",
"1. c #140701",
"2. c #461A04",
"3. c #080300",
"4. c #0D0500",
"5. c #170901",
"6. c #1F0C02",
"7. c #361503",
"8. c #050200",
"9. c #491C04",
"0. c #A23E0A",
"q. c #2E1102",
"w. c #A63F0A",
"e. c #602405",
"r. c #4A1C04",
"t. c #722B07",
"y. c #632506",
"u. c #1B0A01",
"i. c #3B1603",
"p. c #853208",
"a. c #833107",
"s. c #5B2305",
"d. c #732B07",
"f. c #140801",
"g. c #0E0501",
"h. c #0A0300",
"j. c #050100",
"k. c #4C1D04",
"l. c #521F04",
"z. c #531F05",
"x. c #762D07",
"c. c #642606",
"v. c white",
/* pixels */
"  . . . . . X o . . . . . O + . . . . . . + O . . . . . o X . . . . .   @ . . . . . # ",
". $ $ $ $ $ % & $ $ $ $ $ * = $ $ $ $ $ $ - ; $ $ $ $ $ : > $ $ $ $ $ . , $ $ $ $ $ < ",
". $ $ $ $ $ % & $ $ $ $ $ * = $ $ $ $ $ $ - ; $ $ $ $ $ 1 % $ $ $ $ $ . , $ $ $ $ $ 2 ",
"3 4 4 4 4 4 5 6 4 4 4 4 4 7 8 4 4 4 4 4 4 8 9 # 4 4 4 4 0 5 # # 4 4 4 3 q 4 4 4 4 4 w ",
"e e e r t e e e e e y u e e e e e i p e e e e e u a e e e e e s d e e e e e e f e e e ",
"$ $ $ # e $ $ $ $ $ g h $ $ $ $ $ j j $ $ $ $ $ k l $ $ $ $ $ e z $ $ $ $ $ $ 3 $ $ $ ",
"% % > 5 h % % % > % a x % % > % % c c % % % % > x a > % % % % h v % % > % % > b % % % ",
"o & & & & & 9 n & & & & & : m & & & & & & m : & & & & & M N & & & & & -   & & & 1 & B ",
". $ $ $ $ $ > & $ $ $ $ $ * = $ $ $ $ $ $ - ; $ $ $ $ $ & > $ $ $ $ $ . , $ $ $ $ $ < ",
". $ $ $ $ $ % 1 $ $ $ $ $ * = $ $ $ $ $ $ - * $ $ $ $ $ & > $ $ $ $ $ . , $ $ $ $ $ < ",
"V C Z C C Z A S l C Z C g g + g Z Z g Z D F G C g g g g H A Z Z g l g J z g g g Z D K ",
"L k L P u k k I k k U Y h h h k k C C k k I h L Y U I k k k k T P k I k L I L R k k E ",
"$ $ $ 4 e $ $ $ $ $ g k $ $ $ $ $ j j $ $ $ $ $ k g $ $ $ $ $ W # $ $ $ $ $ $ 3 $ $ $ ",
"* ; * 7 Q * * * * ; g ! * * * * * ~ ^ * * * * * ! g * * ; * * % 7 * * * * * * 3 ; * * ",
"+ = = = = = 3 m - = = = = - / = = = - = - / - = = = = = m 3 = = = = = + b = = = = - 6 ",
". $ $ $ $ $ % & $ $ $ $ $ * = $ $ $ $ $ $ - ; $ $ $ $ $ & % $ $ $ $ $ . ( $ $ $ $ $ < ",
") $ $ $ $ $ % & $ $ $ $ $ * = $ $ $ $ $ $ - ; $ $ $ $ $ & % $ $ $ $ $ . , $ $ $ $ $ < ",
"9 _ _ j j j c B _ _ _ j j ` R ' j _ _ _ j 6 ] j _ j _ j [ { _ j j j _ } |  ._ j j  ...",
"j j j X.i _ j ' _ _ K C _ _ j j _ o.O._ j j j j g K j j j j _ +.= j j j @.j j 0 j j j ",
"$ $ $ # e $ $ $ $ $ g k $ $ $ $ $ _ _ $ $ $ $ $ h g $ $ $ $ $ e z $ $ $ $ $ $ 3 $ $ $ ",
"$ $ $ # e $ $ $ $ $ G k $ $ $ $ $ _ j $ $ $ $ $ k Z $ $ $ $ $ e z $ $ $ $ $ $ #.$ $ $ ",
"- - - 8 3 - - - - - + f - - - - - 6 6 = - - - - f + - - - - - 3 8 - - - - = = / - = = ",
") * ; * * ; $.: * * * ; ; %.- * ; * * * ; - %.* * ; ; * : $.; * * * * ) &.* * * * ; *.",
"=.$ $ $ $ $ % 1 $ $ $ $ $ * = $ $ $ $ $ $ - ; $ $ $ $ $ : % $ $ $ $ $ . , $ $ $ $ $ 2 ",
"o.k I k k k x -.h h h I k ( f k k k k k k ;.:.k k k h k >.< k k k k k ,.i h k k k I <.",
"l g g 1.2.g g l g g B & Z <.Z Z g K K l g g l g & B Z Z Z Z Z y #.O g l l g l 3.Z Z Z ",
"$ $ $ 4 e $ $ $ $ $ g h $ $ $ $ $ j j $ $ $ $ $ L Z $ $ $ $ $ e # $ $ $ $ $ $ 3 $ $ $ ",
"$ $ $ 4 e $ $ $ $ $ l k $ $ $ $ $ j j $ $ $ $ $ k Z $ $ $ $ $ e z $ $ $ $ $ $ 1.$ $ $ ",
": & & 4.N & : & : & 5.-.& & & & & 6.6.& : & & & -.5.& : : & & 9 R & 7.: & : 1 8.& 1 : ",
"9.> % % > > , N % % % % % $.3 % > > > % % 3 0.% % > > % q.( > % % % > X @.w.% % % % e.",
"=.$ $ $ $ $ % & $ $ $ $ $ * = $ $ $ $ $ $ = * $ $ $ $ $ : % $ $ $ $ $ . , $ $ $ $ $ < ",
"r.e e e e e h 7 e e W e e W 3 e e e e e e S Q e e e e e 7 h e e e W e r.t.e e W e e y.",
"# 4 # 0 r # # # # # 3 V # # # # 4 u.u.# # # 4 # V 3 # # 4 # # r 0 # # # 4 # # 8.# # 4 ",
"$ $ $ 4 e $ $ $ $ $ C k $ $ $ $ $ j @.$ $ $ $ $ I Z $ $ $ $ $ e # $ $ $ $ $ $ 3 $ $ $ ",
"$ $ $ 4 e $ $ $ $ $ C h $ $ $ $ $  .j $ $ $ $ $ h Z $ $ $ $ $ e 4 $ $ $ $ $ $ 3 $ $ $ ",
") . . 3 r.. . . . . V o.) . . . . } } . . . . . o.J . . . . ) r.3 . . . . . . 3.. . . ",
"i., ( , , p.@.  , , , ( , a.b ( , , , , , b p.p., , , , P @., , , , , 1 s., , , , , g ",
". $ $ $ $ $ % & $ $ $ $ $ * = $ $ $ $ $ $ - * $ $ $ $ $ : % $ $ $ $ $ . , $ $ $ $ $ d.",
". $ $ $ $ $ % & $ $ $ $ $ * = $ $ $ $ $ $ - ; $ $ $ $ $ 1 % $ $ $ $ $ . , $ $ $ $ $ < ",
"1.3 3 8 f 3 1.3 3 #.3.n 3 3 1.3 3 0 4.3 3 1.f.3 g.h.S 3 1.3 S f 8.3 S #.1.3 3 j.3 S 3 ",
"$ $ $ 4 e $ $ $ $ $ Z L $ $ $ $ $  .j $ $ $ $ $ E k.$ $ $ $ $ W 4 $ $ $ $ $ $ 1.$ $ $ ",
"$ $ $ 4 e $ $ $ $ $ C L $ $ $ $ $ j j $ $ $ $ $ h l.$ $ $ $ $ e # $ $ $ $ $ $ S $ $ $ ",
"< 2 2 [ y.< < < < < K z.< 2 x < x.....x.x.x x x l K 2 < < < < c.w < < < < 2 < 0 < 2 < "
};
