/* XPM */
static char *y1676798786[] = {
/* columns rows colors chars-per-pixel */
"43 43 70 1 ",
"  c #9394FF",
". c #494A7F",
"X c black",
"o c #6E6FBF",
"O c #1F272A",
"+ c #21292D",
"@ c #39474D",
"# c #3D4B52",
"$ c #2B2D48",
"% c #181E20",
"& c #3A484F",
"* c #0F1214",
"= c #1A2023",
"- c #3B494F",
"; c #364349",
": c #3B4950",
"> c #38464C",
", c #2D383D",
"< c #303C41",
"1 c #1E2529",
"2 c #151A1C",
"3 c #050707",
"4 c #0D1012",
"5 c #030304",
"6 c #283136",
"7 c #020303",
"8 c #20272B",
"9 c #060708",
"0 c #0C0F10",
"q c #273035",
"w c #010101",
"e c #283237",
"r c #38454C",
"t c #000101",
"y c #030405",
"u c #181E21",
"i c #2F3A3F",
"p c #010102",
"a c #37444A",
"s c #21282C",
"d c #333F45",
"f c #1D2427",
"g c #2F393F",
"h c #293237",
"j c #222B2F",
"k c #354147",
"l c #171C1F",
"z c #1F262A",
"x c #354146",
"c c #0C0B08",
"v c #020201",
"b c #080806",
"n c #070706",
"m c #191711",
"M c #FFECB2",
"N c #332F23",
"B c #A59973",
"V c #393528",
"C c #E5D4A0",
"Z c #E8D6A1",
"A c #3F3B2C",
"S c #CBBC8E",
"D c #BFB185",
"F c #E8D7A2",
"G c #413F53",
"H c #665E47",
"J c #756C51",
"K c #565588",
"L c #8C8161",
"P c white",
/* pixels */
"                                           ",
"                                           ",
"                                           ",
"                                           ",
"               .............               ",
"               XXXXXXXXXXXXX               ",
"          o....O+++++++++++O....o          ",
"          .XXXX@###########@XXXX.          ",
"        o.$%%%%&###########&%%%%$.o        ",
"        .X*#####################*X.        ",
"      o.$*=#####################=*$.o      ",
"      .X%#########################%X.      ",
"      .X%#-;;;;;;:###@;>#:;;;;;;-#%X.      ",
"      .X%#,XXXXXX<###1X2#<XXXXXX,#%X.      ",
"      .X%#,XXXXXX<###1X2#<XXXXXX,#%X.      ",
"    .XO@&#,X3@@@@456#1X2#<X7@@3X,#&@8X.    ",
"    .X+###,X9####0Xq#1X2#<X5##9X,###+X.    ",
"    .X+###,Xw0000e<r#1X2#<Xt00wX,###+X.    ",
"    .X+###,XXXXXX<###1X2#<XXXXXX,###+X.    ",
"    .X+###,Xyqqqqu2i#1X2#<Xpqqqqa###+X.    ",
"    .X+###,X9####0Xq#1X2#<X5########+X.    ",
"    .X+###,X9####0Xq#1X2#<X5########+X.    ",
"    .Xs###,X9####0Xq#1X2#<X5########+X.    ",
"    .Xs###d2u####f2g#h2j#k2l########+X.    ",
"    .X+#############################sX.    ",
"    .X+#####:<<<<<<<<<<<<<<<<<:#####+X.    ",
"    .X+#####;XXXXXXXXXXXXXXXXX;#####+X.    ",
"    .Xz@@@@@xccccvXbcccnXvccccx@@@@@OX.    ",
"      .XXXXXmMMMMNXBMMMBXNMMMMmXXXXX.      ",
"      .XXXXXmMMMMNXBMMMBXNMMMMmXXXXX.      ",
"        .XVCZMMMMNXBMMMBXNMMMMZCVX.        ",
"        .XAMMMMMMNXBMMMBXNMMMMMMAX.        ",
"        .XAMMMMMMSDFMMMFDSMMMMMMAX.        ",
"        .XAMMMMMMMMMMMMMMMMMMMMMAX.        ",
"        o.GHJMMMMMMMMMMMMMMMMMJHG.o        ",
"          .XmMMMMMMMMMMMMMMMMMmX.          ",
"          o.KLLLLLLLLLLLLLLLLLK.o          ",
"             XXXXXXXXXXXXXXXXX             ",
"             .................             ",
"                                           ",
"                                           ",
"                                           ",
"                                           "
};
