/* XPM */
static char *cn1676798785[] = {
/* columns rows colors chars-per-pixel */
"43 43 146 2 ",
"   c #9394FF",
".  c #A39DDE",
"X  c #B0A2B2",
"o  c #DCBD67",
"O  c #DBBB61",
"+  c #D0B05B",
"@  c #AE9FAC",
"#  c #CAB596",
"$  c #E5BF54",
"%  c #F8C83E",
"&  c #F8C739",
"*  c #F0C64B",
"=  c #DDBB5B",
"-  c #C5A34D",
";  c #D7BB70",
":  c #F4D064",
">  c #F8C637",
",  c #E1AB12",
"<  c #BE962C",
"1  c #C89C24",
"2  c #F3BA17",
"3  c #F8CE55",
"4  c #E9C55D",
"5  c #C4A24A",
"6  c #B1A4B7",
"7  c #F4D066",
"8  c #F8C636",
"9  c #DFA810",
"0  c #DEB544",
"q  c #F3CE61",
"w  c #F4D26F",
"e  c #EDC653",
"r  c #D4A628",
"t  c #F0B714",
"y  c #F8CF57",
"u  c #D6B352",
"i  c #C19C3F",
"p  c #E3CF9C",
"a  c #F8D366",
"s  c #E5AE13",
"d  c #D9B245",
"f  c #F8C530",
"g  c #F8D367",
"h  c #F8CF58",
"j  c #ECBB2E",
"k  c #D69D00",
"l  c #F8C32C",
"z  c #EDCA64",
"x  c #C8A23C",
"c  c #B0A2B4",
"v  c #B2A5B9",
"b  c #F5EDDA",
"n  c #FAE9B2",
"m  c #DBAA24",
"M  c #E8C35A",
"N  c #F8C225",
"B  c #F8B905",
"V  c #F8C42F",
"C  c #F8D468",
"Z  c #F8CA44",
"A  c #C8950A",
"S  c #F8C32A",
"D  c #F8D672",
"F  c #CCA439",
"G  c #BC9630",
"H  c #F5EEDE",
"J  c #FAEEC9",
"K  c #DDAD29",
"L  c #E9CE80",
"P  c #F8D46B",
"I  c #F8C227",
"U  c #F8B904",
"Y  c #F8C531",
"T  c #F4D067",
"R  c #CCA232",
"E  c #DEB33B",
"W  c #F5ECD6",
"Q  c #FBECBD",
"!  c #F8D469",
"~  c #FBEEC7",
"^  c #FEFDF8",
"/  c #FBEBBA",
"(  c #F8C01E",
")  c #F6B701",
"_  c #CD9600",
"`  c #F2D684",
"'  c #FAE6A8",
"]  c #DEB238",
"[  c white",
"{  c #FEFDF9",
"}  c #FBEEC4",
"|  c #AD9EAA",
" . c #EECB67",
".. c #F8D261",
"X. c #DEAE2C",
"o. c #F6D269",
"O. c #C79B23",
"+. c #B1A3B5",
"@. c #EAC968",
"#. c #F8D05B",
"$. c #E1B12C",
"%. c #F3ECDA",
"&. c #FEFEFE",
"*. c #F9E8B3",
"=. c #CDA434",
"-. c #F6D46F",
";. c #CBA43A",
":. c #C5A34C",
">. c #C4AD8B",
",. c #F4CE60",
"<. c #F8C226",
"1. c #D3AF4D",
"2. c #F5F0E1",
"3. c #FEFEFD",
"4. c #FCFAF4",
"5. c #E9DBBA",
"6. c #E7CD84",
"7. c #F8CD50",
"8. c #DDB954",
"9. c #BD9735",
"0. c #E5C66E",
"q. c #F8D05C",
"w. c #DEBE68",
"e. c #E2D2A7",
"r. c #E3D3AB",
"t. c #E9DBBB",
"y. c #F9EFD4",
"u. c #FEFCF7",
"i. c #F8E5AD",
"p. c #CCA94C",
"a. c #BDA788",
"s. c #F6CF5C",
"d. c #F3BC1D",
"f. c #E3B229",
"g. c #E4D09A",
"h. c #F9F1D9",
"j. c #FDFCF9",
"k. c #F9F6ED",
"l. c #D3BA79",
"z. c #BFAA8E",
"x. c #E6C463",
"c. c #EDC85B",
"v. c #F2D47D",
"b. c #F5EDDB",
"n. c #E0CD9F",
"m. c #C3B09A",
/* pixels */
"                                                                                      ",
"                                                                                      ",
"                                                                                      ",
"                                                                                      ",
"                                                                                      ",
"                                                                                      ",
"                                                                                      ",
"                                                                                      ",
"                                                                                      ",
"                                                                                      ",
"                                                                                      ",
"                                                                                      ",
"                                                                                      ",
"                                  . X o O O O + @ .                                   ",
"                                  # $ % & & & * = - .                                 ",
"                                ; : > , < < 1 2 3 4 5 .                               ",
"                              6 7 8 9 0 q w e r t y u i                               ",
"                            . p a s d & f g h j k l z x c                             ",
"                            v b n m M N B V C Z A S D F G                             ",
"                            v H J K L P I U Y T R S D F G                             ",
"                            v H J E W Q ! I B f 1 S D F G                             ",
"                            v b ~ E H ^ / P ( ) _ S D F G                             ",
"                            @ ` ' ] H [ { } P I _ S D F G                             ",
"                            |  ...X.H [ [ { / o.O.S D F G                             ",
"                            +.@.#.$.%.&.[ [ ^ *.=.S -.;.:.                            ",
"                              >.,.<.1.2.3.[ 4.5.6.7.8.9.                              ",
"                              . 0.q.<.w.e.r.t.y.u.i.p.a.                              ",
"                                . 0.s.d.f.g.h.j.k.l.z.                                ",
"                                  . v x.c.v.b.n.m.6                                   ",
"                                      +.| @ v 6                                       ",
"                                                                                      ",
"                                                                                      ",
"                                                                                      ",
"                                                                                      ",
"                                                                                      ",
"                                                                                      ",
"                                                                                      ",
"                                                                                      ",
"                                                                                      ",
"                                                                                      ",
"                                                                                      ",
"                                                                                      ",
"                                                                                      "
};
