/* XPM */
static char *en1676798785[] = {
/* columns rows colors chars-per-pixel */
"43 43 194 2 ",
"   c #0E4A0F",
".  c #106714",
"X  c #286118",
"o  c #49423C",
"O  c #6F4D31",
"+  c #564E64",
"@  c #895C3A",
"#  c #8F603C",
"$  c #93613B",
"%  c #996740",
"&  c #BA7F4D",
"*  c #95716F",
"=  c #1B8E18",
"-  c #179518",
";  c #199D1A",
":  c #17AF17",
">  c #1AAF17",
",  c #18A21A",
"<  c #17AD18",
"1  c #1AAE1A",
"2  c #16B017",
"3  c #18B017",
"4  c #16B018",
"5  c #1AB01A",
"6  c #25AE1B",
"7  c #2BAE1E",
"8  c #2CAF1E",
"9  c #1FB321",
"0  c #28AF21",
"q  c #36AF21",
"w  c #3CAF23",
"e  c #24B224",
"r  c #28B228",
"t  c #3AA83C",
"y  c #34B734",
"u  c #35B835",
"i  c #37B938",
"p  c #3DBB3E",
"a  c #589A2C",
"s  c #48AE26",
"d  c #53AE2B",
"f  c #58AE2B",
"g  c #51B12F",
"h  c #46B73D",
"j  c #55B43B",
"k  c #6CAD33",
"l  c #70B03B",
"z  c #3FBC40",
"x  c #38A453",
"c  c #479544",
"v  c #569D5D",
"b  c #45BD45",
"n  c #4ABC45",
"m  c #4BBE4A",
"M  c #58B955",
"N  c #5C9A61",
"B  c #709C70",
"V  c #6AB668",
"C  c #4DC14E",
"Z  c #53C153",
"A  c #56C358",
"S  c #5DC55E",
"D  c #5FC760",
"F  c #63C664",
"G  c #6AC96A",
"H  c #76C96C",
"J  c #6FCC72",
"K  c #75CD75",
"L  c #7BCE7B",
"P  c #88AC3B",
"I  c #90AB3E",
"U  c #99AB41",
"Y  c #8FBB5F",
"T  c #A3AB44",
"R  c #ACAB47",
"E  c #BCAB4D",
"W  c #B2B256",
"Q  c #C1814E",
"!  c #DC9659",
"~  c #E2995B",
"^  c #C4AA4F",
"/  c #D3AA53",
"(  c #DEA957",
")  c #E5AA5B",
"_  c #F2A35E",
"`  c #FAA75F",
"'  c #F6AB5F",
"]  c #F9A95F",
"[  c #CE9869",
"{  c #D5BF7C",
"}  c #EDA262",
"|  c #EFAC65",
" . c #F2A461",
".. c #FBA761",
"X. c #F3A963",
"o. c #FBA962",
"O. c #F9AD6B",
"+. c #FAB06F",
"@. c #F9B375",
"#. c #F9B87E",
"$. c #97C169",
"%. c #59568A",
"&. c #635E8F",
"*. c #577F8E",
"=. c #726998",
"-. c #7B7DB1",
";. c #6F70C0",
":. c #7774C3",
">. c #7A7ACA",
",. c #88759B",
"<. c #558A8C",
"1. c #57968E",
"2. c #5D9190",
"3. c #7A9D98",
"4. c #72AE93",
"5. c #6A9EA1",
"6. c #7494C6",
"7. c #9C868F",
"8. c #B38982",
"9. c #B6A594",
"0. c #9A91AA",
"q. c #A488A7",
"w. c #AD8EA9",
"e. c #B696AC",
"r. c #A997B9",
"t. c #88AABD",
"y. c #B6B8B5",
"u. c #C99B90",
"i. c #CBAD9B",
"p. c #C69DAD",
"a. c #C39DB0",
"s. c #CFAFAB",
"d. c #C5A4BB",
"f. c #82D283",
"g. c #8BD48C",
"h. c #94D894",
"j. c #9AD999",
"k. c #A3D18D",
"l. c #A0D99B",
"z. c #A1DBA1",
"x. c #ABDFAB",
"c. c #B0E0AE",
"v. c #B3E2B3",
"b. c #BAE5BA",
"n. c #D1C386",
"m. c #F6C18D",
"M. c #F8C190",
"N. c #F9C89C",
"B. c #F7CDA6",
"V. c #EBD0AA",
"C. c #F8D8B7",
"Z. c #F9D9BB",
"A. c #8C88C7",
"S. c #908CCF",
"D. c #A695D7",
"F. c #A7ADDD",
"G. c #9394FF",
"H. c #AEAFE3",
"J. c #B4B5E9",
"K. c #B8B9ED",
"L. c #A3A3F4",
"P. c #AAABFB",
"I. c #C4B6DE",
"U. c #C2B8E1",
"Y. c #B3CFCE",
"T. c #D0CFCD",
"R. c #CEC2D1",
"E. c #D8D8D6",
"W. c #DADBD9",
"Q. c #C3E8C5",
"!. c #CAEACA",
"~. c #D8E8CA",
"^. c #D2E9D3",
"/. c #DCF1DB",
"(. c #ECE5CC",
"). c #F8E1C9",
"_. c #E1E1DE",
"`. c #F7E7D5",
"'. c #FAECDC",
"]. c #C8C5EB",
"[. c #C5C6FB",
"{. c #C7C8FC",
"}. c #E6E7E5",
"|. c #EAE9E6",
" X c #FAEEE1",
".X c #E4F4E4",
"XX c #E8F3E4",
"oX c #EDF4EC",
"OX c #F5F6EB",
"+X c #FBF4EC",
"@X c #F7F6F2",
"#X c #F4FAF3",
"$X c #FAFAF4",
"%X c #FCFDFB",
/* pixels */
"G.G.G.G.G.G.G.G.G.G.G.G.G.G.G.G.G.G.G.G.G.G.G.G.G.G.G.G.G.G.G.G.G.G.G.G.G.G.G.G.G.G.G.",
"G.G.G.G.G.G.G.G.G.G.G.G.G.G.G.G.G.G.G.G.G.G.G.G.G.G.G.G.G.G.G.G.G.G.G.G.G.G.G.G.G.G.G.",
"G.G.G.G.G.G.G.G.G.G.G.G.G.G.G.G.G.G.G.G.G.G.G.G.G.G.G.G.G.G.G.G.G.G.G.G.G.G.G.G.G.G.G.",
"G.G.G.G.G.G.G.G.G.G.G.G.G.G.G.G.{.%X@X|.G.G.G.G.G.G.G.G.G.G.G.G.G.G.G.G.G.G.G.G.G.G.G.",
"G.G.G.G.G.G.G.G.G.G.G.<.1 < .X%X%XZ.! G.G.G.G.G.G.G.G.G.G.G.G.G.G.G.G.G.G.G.G.G.G.G.G.",
"G.G.G.G.G.G.G.G.G.G.1.; 4 1 .X%XC.@.! G.G.G.G.G.G.G.G.G.G.G.G.G.G.G.G.G.G.G.G.G.G.G.G.",
"G.G.G.G.G.G.G.G.J.{.4.4 4 < A n.@.E a G.G.G.G.G.G.G.G.G.G.G.G.G.G.G.G.G.G.G.G.G.G.G.G.",
"G.G.G.D.D.G.G.1.^.%Xz.4 4 4 2 k P f ; G.G.G.G.G.G.G.G.G.G.G.G.G.G.G.G.G.G.G.G.G.G.G.G.",
"G.G.D.Q * q.<.< !.$Xj.4 2 : 4 2 : 2 ; G.G.G.G.G.G.G.G.G.G.G.G.G.G.G.G.G.G.G.G.G.G.G.G.",
"G.G.D.% * ) z p ^..Xf.2 > w 3 4 4 2 ; G.G.G.G.G.G.G.G.G.G.G.G.G.G.G.G.G.G.G.G.G.G.G.G.",
"G.G.p.o...@.$X$X#XG 4 : 7 ` q 2 2 < 2 < G.G.G.G.G.G.G.G.G.G.G.G.G.G.G.G.G.G.G.G.G.G.G.",
"G.G.s.] ..o. .@Xm : 2 g ' ] ' d 4 2 < < G.G.G.G.G.G.G.G.G.G.G.G.G.G.G.G.G.G.G.G.G.G.G.",
"G.G.].B.......n 9 P / { (.s ) d 4 4 4 e |.|.M ; , t |.G.G.G.G.G.G.G.G.G.G.G.G.G.G.G.G.",
"G.G.L.R.i.* ..R R ( W l S < ) d 2 4 : e %X%XD 4 m b.%X8.4.6.G.G.G.G.G.G.G.G.G.G.G.G.G.",
"G.G.G.K.y.=.V.B.W n.$.4 5 f.| d < 2 : e %X%XS C x.%X%X..U N t.K.[.K.G.G.G.G.G.G.G.G.G.",
"G.G.G.L.F.S.[.%Xc B N = r ).O.f 2 2 e F %X%XS G ~.$X)...^ d f.%X$X).G.G.G.G.G.G.G.G.G.",
"G.G.G.G.G.G.G._.-.G.G.<.h o...d 4 e S %X%X.XA 2 A ~.) ( w 2 K XX'.' G.G.G.G.G.G.G.G.G.",
"G.G.G.G.G.G.G.G.G.G.G.A. X.. .g 4 J %X%X%Xi 2 : 2 > 2 4 2 : : d X.' 6 !.J.G.G.G.G.G.G.",
"G.G.G.G.G.G.G.G.G.G.G.q.O.o.w 1 h.#X%X#Xr 1 3 3 2 2 2 3 4 : 4 > 6 6 3 Q.J.G.G.G.G.G.G.",
"G.G.G.G.G.G.G.G.G.J.i.! o.o.0 < j.%X%X#X3 2 3 3 2 2 3 Q.!.!.K 4 4 4 4 z 5.G.G.G.G.G.G.",
"G.G.G.G.G.G.G.G.G.L.s.` _ w.2.= m x.%X$Xz.z.z.z.J 2 3 %X%XZ.Y 2 2 5 j.z.Y.P.G.G.G.G.G.",
"G.G.G.G.G.G.G.G.G.G.D.$ O %.-.  . c j.l.C.Z.Z.'.!.G 2 h.V.m.I 2 4 5 #X$X`.I.G.G.G.G.G.",
"G.G.G.G.G.G.G.G.G.G.G.G.:.,.,.,.A.*.= M & _ ` N. X/.Z 2 T ^ k 2 3 5 b.(.M.p.G.G.G.G.G.",
"G.G.G.G.G.G.G.G.G.G.G.G.=.X.O._ O %.o |.;.[ o...m.oX%X1 2 4 4 2 3 3 5 E ) e.G.G.G.G.G.",
"G.G.G.G.G.G.G.G.G.G.G.q.o...OXA.# o...} -.W.M...R z %X4 4 4 4 4 4 3 4 4 3 L W.G.G.G.G.",
"G.G.G.G.G.G.G.G.G.G.G.q.' ..+ :.# o.o...~ + &.X 6 p $X9 4 4 L .X.X.Xe 4 5 l m._.G.G.G.",
"G.G.G.G.G.G.G.G.G.G.G.q.O.`.&.@ ! ........& 9.V 4 p $Xb.i 4 f.%X+Xm.6 2 3 v r.H.G.G.G.",
"G.G.G.G.G.G.G.G.G.G.G.w.} 0.>.& o.........U H b 4 z %X%Xz 3 b k.N.] 6 4 F Y.K.G.G.G.G.",
"G.G.G.G.G.G.G.G.G.G.G.S.8.F.>.& o.o.o.o.` w : 2 4 z %X%Xz 4 4 w T T 5 4 z.%X|.H.G.G.G.",
"G.G.G.G.G.G.G.G.G.G.G.G.G.E.>.[ +...o...~ 0 : 2 4 i !.%Xz 4 4 4 5 b m e k.'.|.W.G.G.G.",
"G.G.G.G.G.G.G.G.G.G.G.G.G.G.G.T.B. . .~ G., 4 4 4 4 1 %Xm 2 4 4 u $X#Xn T ] ! G.G.G.G.",
"G.G.G.G.G.G.G.G.G.G.G.G.G.G.G.G.G.G.G.G.G., 4 4 4 4 2 %X$XG 4 2 q | 6 3 T U ; G.G.G.G.",
"G.G.G.G.G.G.G.G.G.G.G.G.G.G.G.G.G.G.G.G.G.; : 2 2 2 2 u /..XL 2 3 q 1 2 e 7 ; G.G.G.G.",
"G.G.G.G.G.G.G.G.G.G.G.G.G.G.G.G.G.G.G.G.G.6.x : 2 2 2 2 Z Q./.v.z.2 4 2 4 4 ; G.G.G.G.",
"G.G.G.G.G.G.G.G.G.G.G.G.G.G.G.G.G.G.G.G.G.G.6.x 2 4 2 4 4 D b.%XoXh.g.y 4 4 - G.G.G.G.",
"G.G.G.G.G.G.G.G.G.G.G.G.G.G.G.G.G.G.G.G.G.G.G.3.s 4 < 4 4 4 F c.b.%X%Xf.F G V J.G.G.G.",
"G.G.G.G.G.G.G.G.G.G.G.G.G.G.G.G.G.G.G.G.G.G.G.i.W w w 3 3 8 s w j  X X$X%X%X%XoXG.G.G.",
"G.G.G.G.G.G.G.G.G.G.G.G.G.G.G.G.G.G.G.G.G.G.T.%X).o.o.> 5 R o.o.o.o.o.'.%X%X%XOXG.G.G.",
"G.G.G.G.G.G.G.G.G.G.G.G.G.G.G.G.G.G.G.G.G.}.%X%X).o.o.X.X.] o.o.o.o.] o.o.B.W.G.G.G.G.",
"G.G.G.G.G.G.G.G.G.G.G.G.G.G.G.G.G.G.G.G.G.G.G.G.G.7. X X@.o.N.'.`.o.o.o.o.u.G.G.G.G.G.",
"G.G.G.G.G.G.G.G.G.G.G.G.G.G.G.G.G.G.G.G.G.G.G.G.L.].%X%X#.B.'.%X+X........~ e.G.G.G.G.",
"G.G.G.G.G.G.G.G.G.G.G.G.G.G.G.G.G.G.G.G.G.G.G.G.L.{.[.[.d.U.{.[.U.a.a.a.a.a.w.G.G.G.G.",
"G.G.G.G.G.G.G.G.G.G.G.G.G.G.G.G.G.G.G.G.G.G.G.G.G.G.G.G.G.G.G.G.G.G.G.G.G.G.G.G.G.G.G."
};
