/* XPM */
static char *exe1676798785[] = {
/* columns rows colors chars-per-pixel */
"43 43 157 2 ",
"   c #3E1706",
".  c #3E281F",
"X  c #411705",
"o  c #451906",
"O  c #4B1B06",
"+  c #461B08",
"@  c #4C1D08",
"#  c #531E07",
"$  c #521F08",
"%  c #562107",
"&  c #5B2107",
"*  c #542109",
"=  c #5C2309",
"-  c #632407",
";  c #6A2707",
":  c #6C2807",
">  c #632609",
",  c #682708",
"<  c #66280A",
"1  c #6A290A",
"2  c #722A07",
"3  c #732C09",
"4  c #7B2F09",
"5  c #7D300A",
"6  c #67341C",
"7  c #70371E",
"8  c #4B2E21",
"9  c #523121",
"0  c #5B3421",
"q  c #733D24",
"w  c #6D491A",
"e  c #784228",
"r  c #83320A",
"t  c #8C360A",
"y  c #8F380C",
"u  c #93390B",
"i  c #9E3C0B",
"p  c #A13E0C",
"a  c #D52700",
"s  c #91421D",
"d  c #83511A",
"f  c #885319",
"g  c #9E5C1C",
"h  c #A6400C",
"j  c #AC420C",
"k  c #B3450D",
"l  c #BC490D",
"z  c #B64B14",
"x  c #AF501F",
"c  c #A35F1D",
"v  c #BF5018",
"b  c #834222",
"n  c #8A4422",
"m  c #884827",
"M  c #8D4A2E",
"N  c #9C4B23",
"B  c #934A29",
"V  c #9E532F",
"C  c #A34D24",
"Z  c #B6482E",
"A  c #AA5123",
"S  c #B35423",
"D  c #B85724",
"F  c #B65827",
"G  c #BB5926",
"H  c #BA5A28",
"J  c #BC4D33",
"K  c #A55939",
"L  c #837028",
"P  c #8B732A",
"I  c #97792C",
"U  c #A47E2C",
"Y  c #C34B0C",
"T  c #C44D10",
"R  c #C7561E",
"E  c #C75821",
"W  c #CB5A22",
"Q  c #C35A28",
"!  c #CD6432",
"~  c #D06734",
"^  c #D16835",
"/  c #9A5A42",
"(  c #A96246",
")  c #B66949",
"_  c #B26D52",
"`  c #B87258",
"'  c #BD775B",
"]  c #BA5F62",
"[  c #B77761",
"{  c #B97B66",
"}  c #B16770",
"|  c #B66972",
" . c #CF6E42",
".. c #C9744F",
"X. c #D47346",
"o. c #D57A53",
"O. c #DB7D54",
"+. c #AD812D",
"@. c #B5842D",
"#. c #BD882E",
"$. c #BEA73C",
"%. c #C68B2E",
"&. c #C0A73C",
"*. c #C8AB3E",
"=. c #D2AF3E",
"-. c #DAB23F",
";. c #D69353",
":. c #CF8467",
">. c #CA826A",
",. c #D4896C",
"<. c #DE8D6F",
"1. c #D08C74",
"2. c #D1917D",
"3. c #E28A68",
"4. c #E79373",
"5. c #FADE50",
"6. c #866C95",
"7. c #8F6F95",
"8. c #896F99",
"9. c #9E6790",
"0. c #937296",
"q. c #9E7596",
"w. c #AA7A82",
"e. c #AD6C93",
"r. c #A97996",
"t. c #A77899",
"y. c #B17D9A",
"u. c #B5838D",
"i. c #BC8F9D",
"p. c #9683AE",
"a. c #978CBF",
"s. c #9F8DBE",
"d. c #AD80A6",
"f. c #B585A5",
"g. c #B292A7",
"h. c #A888B3",
"j. c #B28FB9",
"k. c #AD91BF",
"l. c #BC9DB0",
"z. c #B794BD",
"x. c #C095A4",
"c. c #C19DB0",
"v. c #9088D5",
"b. c #948DDB",
"n. c #9D90D3",
"m. c #9590DF",
"M. c #AB95C5",
"N. c #AB97C8",
"B. c #AF98C9",
"V. c #B395C1",
"C. c #B997C1",
"Z. c #BD9BC5",
"A. c #B29ACA",
"S. c #BC9ECB",
"D. c #9E93E1",
"F. c #9394FF",
"G. c #A397E5",
/* pixels */
"F.F.F.F.F.F.F.F.F.F.F.F.F.F.F.F.F.F.;.n.F.F.F.F.F.F.F.F.F.F.F.F.F.F.F.F.F.F.F.F.F.F.F.",
"F.F.F.F.F.F.F.F.F.F.F.F.F.F.F.F.F.F.y.F.F.F.F.F.F.F.F.F.F.F.F.F.F.F.F.F.F.F.F.F.F.F.F.",
"F.F.F.F.F.F.F.F.F.F.F.F.F.F.F.F.F.F.e.F.9.Z 9.F.F.F.F.F.F.F.F.F.F.F.F.F.F.F.F.F.F.F.F.",
"F.F.F.F.F.F.F.F.F.F.F.F.F.F.F.F.F.F.} b.J a ] F.F.F.F.F.F.F.F.F.F.F.F.F.F.F.F.F.F.F.F.",
"F.F.F.F.F.F.F.F.F.F.F.F.F.F.F.F.F.F.e.F.J t.| F.F.F.F.F.F.F.F.F.F.F.F.F.F.F.F.F.F.F.F.",
"F.F.F.F.F.F.F.F.F.F.F.F.F.F.F.F.F.F.e.F.F.F.F.F.F.F.F.F.F.F.F.F.F.F.F.F.F.F.F.F.F.F.F.",
"F.F.F.F.F.F.F.F.F.F.G.Z.D.F.F.D.Z.Z.>.l.F.F.F.S.Z.Z.S.F.F.F.G.Z.k.F.F.F.F.F.F.F.F.F.F.",
"F.F.F.F.F.F.F.F.F.F.r.T A.F.F.N.R Y Y ,.F.F.F...Y Y ~ s.F.F.z.Y F F.F.F.F.F.F.F.F.F.F.",
"F.F.F.F.F.F.F.F.F.F.r.Y A.F.F.h.R Y Y :.F.F.F.) Y Y ~ m.F.F.j.Y F F.F.F.F.F.F.F.F.F.F.",
"F.F.F.F.F.F.F.F.F.F.7.t c.A.A.g.s r t { B.N.M.( t t V A.A.N.i.t m F.F.F.F.F.F.F.F.F.F.",
"F.F.F.F.F.F.F.F.F.F.q.h W A N W k & h v W e W v u : z R b E R h 8 F.F.F.F.F.F.F.F.F.F.",
"F.F.F.F.F.F.F.F.F.F.6.: : & @ < :   : ; :   : : - O , ; X , ; ; . F.F.F.F.F.F.F.F.F.F.",
"F.F.F.F.F.F.F.F.F.F.r.l : Y Y r h Y Y < T l Y 1 Y Y y i Y Y < Y S F.F.F.F.F.F.F.F.F.F.",
"F.F.F.F.F.F.F.F.F.F.8.< + > %.@.#.%.< + 1 = < + < %.@.@.%.< + < 0 F.F.F.F.F.F.F.F.F.F.",
"F.F.F.F.F.F.F.F.F.F.r.Y Y h 5.5.5.L Y Y Y 1 Y Y j 5.5.5.5.k Y Y 9 F.F.F.F.F.F.F.F.F.F.",
"F.F.F.F.F.F.F.F.F.F.8.> * > *.5.5.$.1 @ 1 = 1 + < =.5.5.5.> * 1 0 F.F.F.F.F.F.F.F.F.F.",
"F.F.F.F.F.F.F.F.F.F.r.l 2 Y @.5.5.L Y 1 Y Y Y ; Y %.5.5.5.k < Y H F.F.F.F.F.F.F.F.F.F.",
"F.F.F.F.F.F.F.F.F.F.8.; ; # &.5.5.$.1 > ;   < , = $.5.5.5.> , < . F.F.F.F.F.F.F.F.F.F.",
"F.F.F.F.F.F.F.F.F.F.t.k k u 5.5.5.w j k k - k k h 5.5.5.5.h k k 8 F.F.F.F.F.F.F.F.F.F.",
"F.F.F.F.F.F.F.F.F.F.7.4 o 4 U 5.5.$.5 + 4 4 4 X 5 +.5.5.$.3 X 4 r F.F.F.F.F.F.F.F.F.F.",
"F.F.F.F.F.F.F.F.F.F.0.u # u U 5.5.*.u @ u u u @ u @.5.5.5.t @ u n F.F.F.F.F.F.F.F.F.F.",
"F.F.F.u.2.F.F.F.C.,.>._ ( r 2 K [ [ _ ' i * i { _ _ [ A = u ) _ _ :.M.F.F.b.1.:.m.F.F.",
"F.F.F.D X.F.F.F.f.Y Y Y _ - # / W Y Y o.2 X 3 O.Y Y ^ B O 1 ` Y Y Y z.F.F.a.! Y p.F.F.",
"F.F.F.G X.F.F.F.d.Y Y T o.l l  .W T Y ;.k l l O.Y Y ^ Q k l o.Y Y Y h.F.F.b.! Y p.F.F.",
"F.F.F.e / x.V.C.w.1 > 1 4.O.o.3.r g < ' O.o.O._ < < M 3.o.O.<.; > 1 u.C.V.l.M > v.F.F.",
"F.F.F.Q Y Y : Y Y Y 1 Y T p t Y T 1 Y Y Y 1 Y Y k 5 Y Y 3 l Y Y 1 Y Y l 2 Y Y r F.F.F.",
"F.F.F.q & < * < $ 1 $ < # - & = > $ 1 * 1 $ < * > & = = % < % < @ 1 * < # - = & F.F.F.",
"F.F.F.G 4 k Y Y < Y Y Y 3 Y Y r h T Y 1 Y Y T 1 Y Y u i Y Y : Y Y Y 1 Y Y p t Y F.F.F.",
"F.F.F.q = < + < - < + < = = $ > < + 1 = w I I = > @ > > O < = < X 1 = < + : > @ F.F.F.",
"F.F.F.D l l < l l l < l l p r l z < k w $.5.5.P r 4 l l 3 j Y l > l l l : l l 4 F.F.F.",
"F.F.F.e o ; 2 3   3 3 : o 3 3 @ > 1 +.5.5.5.5.5.P : * & 2 3   3 3 3   3 3 & % 3 F.F.F.",
"F.F.F.N - u p p * p i i & p p 1 t p -.5.5.5.5.5.&.r 3 r i p * i p i * i p r 3 i F.F.F.",
"F.F.F.n t t @ t t t + t y 3 > t t f 5.5.5.5.5.5.5.& t t % r t t @ t y t # y t & F.F.F.",
"F.F.F.b r r O r r r + r r 2 = r r d 5.5.5.5.5.5.5.$ r r @ 5 r r o r r 5 o r r & F.F.F.",
"F.F.F.C : i j j = j j j - j j 4 u j &.5.5.5.5.5.5.: r r j j = j j j & j j t 5 j F.F.F.",
"F.F.F.7 o > < : X : < : X < ; O = < 5.5.5.5.5.5.5.d $ & ; < X < < : X < ; % $ ; F.F.F.",
"F.F.F.D Y Y < Y Y Y < Y Y h t l Y > 5.5.5.5.5.5.5.5 Y Y 3 z Y Y < Y Y l 3 Y Y 5 F.F.F.",
"F.F.F.7 = < @ : = 1 + 1 & = * > < + 5.5.5.5.5.5.5.+ = > @ < = : @ : = < + > = $ F.F.F.",
"F.F.F.x 4 k Y Y 1 Y Y Y 2 Y Y r j l &.5.5.5.5.5.5.5 u i Y Y : Y Y Y 1 Y Y i y Y F.F.F.",
"F.F.F.6 = < O < = 1 + < & > * = > + 5.5.5.5.5.5.5.X = < @ < = < + < = < $ > > * F.F.F.",
"F.F.F.x Y Y < Y l Y < Y T h t l Y > 5.5.5.5.5.5.5.4 Y Y 3 k Y Y < Y Y l 2 Y Y r F.F.F.",
"F.F.F.6 o , < :   : < 1 X < < @ = c 5.5.5.5.5.5.5.o $ # < :   : < <   : , & @ ; F.F.F.",
"F.F.F.N : p j j = j j j - j k 3 u j 5.5.5.5.5.5.5.: r t j k - j k j = j j t 4 j F.F.F."
};
